<mxfile host="app.diagrams.net" modified="2023-11-28T08:05:28.659Z" agent="Mozilla/5.0 (Macintosh; Intel Mac OS X 10_15_7) AppleWebKit/537.36 (KHTML, like Gecko) Chrome/119.0.0.0 Safari/537.36" version="22.1.4" etag="KoHXOxXaldosiyDdXAXm" type="github">
  <diagram name="第 1 页" id="a3fRomsV0zWOnSa1DZVL">
    <mxGraphModel>
      <root>
        <mxCell id="0" />
        <mxCell id="1" parent="0" />
      </root>
    </mxGraphModel>
  </diagram>
</mxfile>
